<svg width="1051" height="1007" viewBox="0 0 1051 1007" fill="none" xmlns="http://www.w3.org/2000/svg">
  <path d="M818.166 259.046L829.989 279.935L838.943 301.054L845.027 322.402L848.356 343.979L848.93 360.277L847.896 376.69L845.371 393.218L841.239 409.86L835.729 424.322L826.775 442.226L814.378 463.575L798.537 488.251L734.485 585.695L670.663 684.86L670.433 685.09L668.367 684.86L653.215 656.97L643.802 633.9L638.292 612.093L637.03 590.86L638.407 576.628L641.851 561.822L649.542 543.917L663.202 520.847L777.99 343.75L790.502 323.205L800.259 304.038L807.72 285.674L813.001 267.425L814.608 259.964L815.985 257.21L818.396 259.276L818.166 259.046Z" fill="#101010" fill-opacity="0.2"/>
  <path fill-rule="evenodd" clip-rule="evenodd" d="M925.723 493.531L924.23 474.134L918.95 449.457L910.341 424.781L898.288 400.104L895.763 397.579L894.041 400.678L888.761 420.42L881.988 439.472L872.92 459.328L861.785 478.725L672.384 778.402L670.203 780.123L668.252 778.287L602.249 653.068L594.443 636.081L588.933 619.094L585.604 602.108L584.571 585.121L586.293 565.609L590.999 546.098L598.805 526.586L609.595 507.074L770.184 252.963L772.136 249.405C786.255 228.631 802.21 201.085 808.294 191.329C836.302 146.797 841.697 69.3239 804.735 46.1394C766.855 22.2663 700.163 61.1749 672.155 105.707C670.548 108.347 669.17 110.872 667.793 113.512L436.379 103.986L415.258 103.527L396.088 104.215L394.252 104.445C329.281 22.4958 257.653 1.95117 207.031 0C197.16 0 189.584 4.93531 188.321 13.0843C186.599 21.922 191.765 30.9892 200.488 36.9574C240.32 62.7817 275.445 103.068 301.388 136.697L294.5 141.173L274.642 158.389L256.62 178.819L240.32 202.462L239.057 205.217V206.824L240.779 207.283L243.764 206.594L263.048 201.085L281.988 197.412L300.469 195.461L318.606 195.232L682.256 209.578L683.634 210.382L683.863 211.989L683.634 212.448L605.692 335.831L598.46 346.275L590.54 355.801L581.931 364.524L572.633 372.329L553.578 384.265L532.113 393.103L518.223 396.546L502.153 398.727L483.901 399.645L463.469 399.301L175.924 387.824V387.594C105.788 381.855 52.7556 403.662 13.0388 429.487C1.44511 438.439 -3.14643 453.819 2.24863 468.854C8.79158 485.267 21.7627 496.859 37.7183 498.811C54.8218 500.762 72.4992 504.664 90.1767 509.599L102.115 535.653L211.164 743.281L224.135 767.039L235.958 786.551L246.519 801.816L255.817 812.834L267.984 824.311L280.84 834.526L294.271 843.479L308.275 851.169L328.478 859.777L349.828 865.975L372.327 869.877L396.088 871.369L399.761 871.025L401.369 869.877L400.909 867.926L398.269 865.171L384.954 852.546L372.786 838.543L361.766 823.164L352.009 806.407L183.5 486.3L183.615 484.234L185.336 483.316L289.335 487.218L319.18 488.71L343.745 491.121L362.914 494.334L376.804 498.466L398.499 509.485L408.256 516.142L417.324 523.602L425.818 532.095L433.624 541.392L440.626 551.492L446.94 562.396L586.752 828.329L592.377 837.166C605.922 879.633 614.76 924.051 614.646 964.451C614.875 980.52 624.747 994.752 640.358 1003.13C654.592 1010.13 670.433 1007.38 680.649 996.933C709.576 962.041 735.862 914.295 740.224 848.644L748.145 837.97L758.591 822.016L823.446 717.915L885.547 620.816L896.337 603.141L904.257 588.45C940.875 609.224 984.609 637.917 1015.14 672.924C1022.26 680.728 1031.9 684.516 1040.4 681.532C1048.2 679.122 1052.1 670.973 1050.73 661.217C1041.77 612.323 1012.16 545.983 925.608 493.76L925.723 493.531Z" fill="#101010" fill-opacity="0.2"/>
  <path d="M162.608 338.7L174.891 318.04L188.78 299.791L204.277 283.837L221.38 270.179L235.155 261.571L249.848 254.34L265.459 248.372L281.988 243.666L297.255 241.256L317.228 240.108H341.908L371.179 241.6L487.575 248.602L605.348 254.57H605.692L606.496 256.521L589.851 283.608L574.584 303.234L558.399 318.844L540.607 330.551L527.521 336.404L512.943 340.766L493.658 343.061L466.798 342.717L255.931 331.469L231.941 330.895L210.475 331.928L190.846 334.683L172.365 339.274L165.019 341.569H161.92L162.494 338.7H162.608Z" fill="#101010" fill-opacity="0.2"/>
  <path d="M563.336 867.009H539.345L516.502 864.484L494.922 859.319L474.489 851.629L460.026 844.169L446.251 835.216L433.051 824.886L420.539 813.065L410.667 801.128L399.418 784.6L386.906 763.367L373.131 737.543L319.525 634.016L264.311 529.801V529.456L265.459 527.85L297.141 528.309L321.82 531.293L343.516 537.146L362.685 546.443L374.394 554.707L385.643 564.922L397.466 580.302L410.896 603.601L509.155 790.454L520.979 811.343L532.917 829.248L545.314 844.742L558.629 858.286L564.369 863.336L566.091 865.976L563.221 867.009H563.336Z" fill="#101010" fill-opacity="0.2"/>
</svg>
