<svg width="933" height="894" viewBox="0 0 933 894" fill="none" xmlns="http://www.w3.org/2000/svg">
  <path d="M726.307 229.977L736.803 248.522L744.751 267.271L750.152 286.224L753.107 305.38L753.617 319.849L752.7 334.42L750.458 349.093L746.789 363.868L741.898 376.707L733.95 392.602L722.945 411.555L708.882 433.462L652.022 519.971L595.365 608.009L595.161 608.213L593.327 608.009L579.876 583.248L571.52 562.767L566.629 543.407L565.508 524.557L566.731 511.922L569.788 498.777L576.615 482.881L588.741 462.401L690.642 305.176L701.749 286.937L710.411 269.92L717.034 253.617L721.722 237.416L723.148 230.793L724.371 228.347L726.511 230.181L726.307 229.977Z" fill="white" fill-opacity="0.1"/>
  <path fill-rule="evenodd" clip-rule="evenodd" d="M821.788 438.15L820.463 420.929L815.776 399.022L808.133 377.114L797.434 355.207L795.192 352.965L793.663 355.716L788.976 373.242L782.964 390.157L774.914 407.785L765.029 425.005L596.893 691.054L594.957 692.582L593.225 690.952L534.632 579.784L527.702 564.704L522.811 549.623L519.856 534.543L518.939 519.462L520.467 502.14L524.645 484.818L531.575 467.495L541.153 450.173L683.713 224.577L685.445 221.418C697.979 202.975 712.143 178.521 717.544 169.859C742.407 130.324 747.197 61.5447 714.385 40.9619C680.757 19.7677 621.553 54.3102 596.689 93.8455C595.263 96.1891 594.04 98.4308 592.817 100.774L387.385 92.3171L368.635 91.9095L351.618 92.5209L349.987 92.7247C292.312 19.9715 228.725 1.73222 183.787 0C175.024 0 168.298 4.3815 167.177 11.6161C165.649 19.462 170.234 27.5117 177.979 32.8103C213.338 55.7367 244.52 91.5019 267.55 121.357L261.436 125.331L243.807 140.615L227.808 158.753L213.338 179.743L212.218 182.189V183.615L213.746 184.023L216.395 183.411L233.515 178.521L250.328 175.26L266.734 173.528L282.835 173.324L605.656 186.061L606.879 186.774L607.083 188.201L606.879 188.608L537.689 298.146L531.269 307.418L524.238 315.875L516.595 323.619L508.341 330.548L491.426 341.145L472.37 348.991L460.04 352.048L445.774 353.984L429.572 354.799L411.434 354.494L156.172 344.304V344.1C93.9107 339.006 46.8325 358.366 11.5748 381.292C1.28286 389.24 -2.79317 402.894 1.99617 416.242C7.80451 430.813 19.3193 441.105 33.4835 442.837C48.6667 444.569 64.3595 448.033 80.0522 452.415L90.6499 475.545L187.456 659.874L198.97 680.966L209.466 698.288L218.841 711.84L227.095 721.622L237.897 731.812L249.309 740.88L261.232 748.828L273.664 755.655L291.598 763.297L310.552 768.8L330.524 772.264L351.618 773.589L354.879 773.283L356.305 772.264L355.898 770.532L353.554 768.086L341.733 756.878L330.932 744.447L321.149 730.793L312.488 715.916L162.898 431.73L162.999 429.896L164.528 429.081L256.85 432.545L283.344 433.87L305.151 436.01L322.168 438.863L334.498 442.531L353.758 452.313L362.419 458.223L370.469 464.846L378.01 472.386L384.939 480.64L391.155 489.607L396.76 499.287L520.875 735.378L525.868 743.224C537.892 780.925 545.739 820.359 545.637 856.226C545.841 870.491 554.604 883.126 568.463 890.565C581.098 896.78 595.161 894.335 604.23 885.062C629.909 854.086 653.244 811.698 657.116 753.414L664.147 743.937L673.421 729.774L730.994 637.355L786.123 551.151L795.701 535.46L802.733 522.417C835.239 540.86 874.063 566.334 901.169 597.412C907.487 604.341 916.046 607.703 923.587 605.054C930.516 602.914 933.981 595.68 932.758 587.019C924.81 543.611 898.519 484.716 821.686 438.353L821.788 438.15Z" fill="white" fill-opacity="0.1"/>
  <path d="M144.352 300.693L155.255 282.351L167.585 266.15L181.342 251.987L196.525 239.861L208.753 232.219L221.796 225.8L235.655 220.501L250.328 216.323L263.881 214.184L281.612 213.165H303.521L329.505 214.489L432.833 220.705L537.383 226.003H537.689L538.402 227.736L523.626 251.783L510.074 269.207L495.706 283.065L479.911 293.458L468.294 298.655L455.353 302.527L438.234 304.565L414.389 304.259L227.197 294.273L205.9 293.764L186.844 294.681L169.419 297.126L153.013 301.202L146.492 303.24H143.74L144.25 300.693H144.352Z" fill="white" fill-opacity="0.1"/>
  <path d="M500.088 769.718H478.79L458.512 767.476L439.355 762.891L421.216 756.064L408.377 749.441L396.149 741.493L384.43 732.322L373.323 721.827L364.56 711.23L354.573 696.557L343.466 677.706L331.238 654.78L283.65 562.87L234.636 470.349V470.044L235.655 468.617L263.78 469.025L285.688 471.674L304.948 476.871L321.965 485.124L332.359 492.461L342.345 501.529L352.841 515.183L364.763 535.868L451.991 701.754L462.486 720.299L473.084 736.194L484.089 749.95L495.91 761.974L501.005 766.457L502.533 768.801L499.986 769.718H500.088Z" fill="white" fill-opacity="0.1"/>
</svg>
