<?xml version="1.0" standalone="no"?>
<!DOCTYPE svg PUBLIC "-//W3C//DTD SVG 20010904//EN"
 "http://www.w3.org/TR/2001/REC-SVG-20010904/DTD/svg10.dtd">
<svg version="1.0" xmlns="http://www.w3.org/2000/svg"
 width="1024.000000pt" height="1024.000000pt" viewBox="0 0 1024.000000 1024.000000"
 preserveAspectRatio="xMidYMid meet">
<metadata>
Created by potrace 1.14, written by Peter Selinger 2001-2017
</metadata>
<g transform="translate(0.000000,1024.000000) scale(0.100000,-0.100000)"
fill="#000000" stroke="none">
<path d="M0 5120 l0 -5120 5120 0 5120 0 0 5120 0 5120 -5120 0 -5120 0 0
-5120z m5475 3625 c706 -82 1292 -322 1867 -765 150 -115 462 -424 581 -573
493 -623 754 -1300 811 -2107 48 -689 -128 -1430 -485 -2036 -168 -285 -333
-498 -574 -740 -216 -216 -341 -320 -570 -473 -580 -386 -1223 -588 -1935
-607 -695 -19 -1371 159 -1982 524 -417 249 -805 610 -1104 1028 -293 411
-514 939 -603 1444 -57 321 -76 733 -47 1020 120 1157 753 2169 1735 2770 522
319 1080 492 1731 534 111 7 439 -4 575 -19z"/>
<path d="M3395 7978 c-33 -17 -45 -39 -45 -79 0 -60 16 -82 133 -181 115 -98
251 -242 347 -368 73 -97 120 -166 120 -178 0 -4 -35 -33 -78 -64 -42 -31
-109 -89 -147 -130 -69 -72 -152 -184 -144 -193 3 -2 22 0 44 5 64 15 274 40
340 40 58 0 2156 -199 2164 -206 5 -4 -474 -678 -528 -743 -93 -110 -218 -186
-384 -233 -177 -51 -237 -48 -1317 60 -503 51 -946 92 -985 92 -232 0 -522
-78 -707 -189 -104 -64 -134 -158 -84 -268 45 -96 90 -134 188 -154 66 -13
179 -45 237 -67 34 -12 47 -24 58 -51 43 -103 641 -1428 679 -1502 168 -335
390 -513 734 -590 81 -18 240 -26 240 -13 0 4 -33 43 -73 88 -41 44 -90 106
-111 137 -42 64 -948 2043 -937 2047 4 1 190 -16 412 -38 388 -39 546 -63 647
-96 58 -20 160 -82 230 -141 111 -94 122 -116 529 -997 211 -457 393 -846 403
-863 45 -76 98 -405 106 -658 5 -149 10 -188 27 -228 37 -89 144 -156 229
-143 62 9 108 41 175 121 159 191 274 433 319 672 l16 87 221 310 c121 171
331 464 467 651 135 187 265 368 289 403 23 34 44 62 47 62 7 0 75 -44 175
-114 155 -110 283 -222 374 -327 106 -121 119 -131 181 -127 38 2 51 8 68 31
71 96 -49 466 -228 704 -82 109 -235 261 -339 337 l-67 50 0 55 c0 62 -19 172
-48 278 -26 90 -90 229 -101 217 -5 -5 -17 -34 -26 -64 -19 -59 -70 -167 -106
-228 -63 -103 -1293 -1812 -1303 -1809 -17 6 -362 773 -387 862 -33 115 -33
318 0 425 45 149 98 227 688 1026 771 1042 788 1067 842 1229 85 256 55 496
-74 602 -93 77 -260 71 -441 -16 -140 -67 -233 -140 -344 -268 l-45 -51 -725
74 c-399 40 -752 74 -785 74 l-60 1 -50 66 c-79 103 -243 262 -343 333 -110
77 -250 150 -370 192 -150 52 -300 72 -347 46z"/>
<path d="M3747 6540 c-70 -11 -222 -62 -298 -100 -113 -58 -275 -209 -363
-343 -32 -48 -56 -90 -53 -93 3 -3 21 -1 39 5 65 21 212 41 299 41 48 0 393
-27 766 -60 716 -64 844 -71 933 -51 128 30 277 123 373 234 57 65 161 216
155 223 -2 2 -150 15 -329 29 -349 28 -1009 89 -1125 105 -108 14 -332 20
-397 10z"/>
<path d="M6846 6278 c-56 -190 -107 -272 -542 -868 -223 -305 -408 -562 -412
-570 -3 -8 -24 -42 -48 -75 -52 -74 -88 -155 -113 -252 -16 -62 -18 -89 -11
-172 5 -54 19 -127 30 -162 31 -91 118 -271 129 -267 5 1 101 129 213 283 112
154 305 415 429 580 123 165 243 329 267 365 49 75 146 261 168 323 24 66 43
191 50 322 8 147 -10 228 -84 391 -48 104 -68 131 -76 102z"/>
<path d="M3620 4874 c0 -5 57 -137 126 -294 69 -157 202 -465 296 -685 93
-220 200 -458 236 -530 58 -112 79 -142 157 -224 115 -120 230 -198 372 -252
60 -23 117 -45 128 -50 27 -11 259 -31 279 -23 12 5 4 20 -40 69 -50 58 -170
230 -194 280 -5 11 -134 301 -285 644 -152 343 -300 666 -330 717 -135 229
-308 320 -657 349 -49 4 -88 3 -88 -1z"/>
</g>
</svg>
